<svg id="calendar" xmlns="http://www.w3.org/2000/svg" width="26.286" height="26.286" viewBox="0 0 26.286 26.286">
  <path id="Path_1" data-name="Path 1" d="M1.643,7.179V23.607A1.643,1.643,0,0,0,3.286,25.25H23a1.643,1.643,0,0,0,1.643-1.643V7.179ZM3.286,2.25A3.286,3.286,0,0,0,0,5.536V23.607a3.286,3.286,0,0,0,3.286,3.286H23a3.286,3.286,0,0,0,3.286-3.286V5.536A3.286,3.286,0,0,0,23,2.25Z" transform="translate(0 -0.607)" fill="#5bb6b1" fill-rule="evenodd"/>
  <path id="Path_2" data-name="Path 2" d="M7.571,0a.821.821,0,0,1,.821.821v.821a.821.821,0,0,1-1.643,0V.821A.821.821,0,0,1,7.571,0ZM22.357,0a.821.821,0,0,1,.821.821v.821a.821.821,0,0,1-1.643,0V.821A.821.821,0,0,1,22.357,0Z" transform="translate(-1.821)" fill="#5bb6b1" fill-rule="evenodd"/>
  <path id="Path_3" data-name="Path 3" d="M19.893,14.321a.821.821,0,0,1,.821-.821h1.643a.821.821,0,0,1,.821.821v1.643a.821.821,0,0,1-.821.821H20.714a.821.821,0,0,1-.821-.821Zm-4.929,0a.821.821,0,0,1,.821-.821h1.643a.821.821,0,0,1,.821.821v1.643a.821.821,0,0,1-.821.821H15.786a.821.821,0,0,1-.821-.821ZM6.75,19.25a.821.821,0,0,1,.821-.821H9.214a.821.821,0,0,1,.821.821v1.643a.821.821,0,0,1-.821.821H7.571a.821.821,0,0,1-.821-.821Zm4.929,0a.821.821,0,0,1,.821-.821h1.643a.821.821,0,0,1,.821.821v1.643a.821.821,0,0,1-.821.821H12.5a.821.821,0,0,1-.821-.821Z" transform="translate(-1.821 -3.643)" fill="#5bb6b1"/>
</svg>
