<svg xmlns="http://www.w3.org/2000/svg" width="19.713" height="19.712" viewBox="0 0 19.713 19.712">
  <path id="plus" d="M19.712,8.512V11.2a1.339,1.339,0,0,1-1.344,1.344H12.544v5.824A1.339,1.339,0,0,1,11.2,19.712H8.512a1.339,1.339,0,0,1-1.344-1.344V12.544H1.344a1.3,1.3,0,0,1-.952-.392A1.3,1.3,0,0,1,0,11.2V8.512A1.3,1.3,0,0,1,.392,7.56a1.3,1.3,0,0,1,.952-.392H7.168V1.344A1.3,1.3,0,0,1,7.56.392,1.3,1.3,0,0,1,8.512,0H11.2a1.3,1.3,0,0,1,.952.392,1.3,1.3,0,0,1,.392.952V7.168h5.824a1.339,1.339,0,0,1,1.344,1.344Z" fill="#5bb6b1"/>
</svg>
