<svg xmlns="http://www.w3.org/2000/svg" width="20.743" height="23.937" viewBox="0 0 20.743 23.937">
  <g id="trash" transform="translate(-4 -2)">
    <path id="Path_4" data-name="Path 4" d="M6,9V25.457A2.192,2.192,0,0,0,8.139,27.7H21.776a2.192,2.192,0,0,0,2.177-2.244V9Zm6.732,14.961h-1.5V12.74h1.5Zm5.984,0h-1.5V12.74h1.5Z" transform="translate(-0.504 -1.764)" fill="#e5604e"/>
    <path id="Path_5" data-name="Path 5" d="M23.995,4.244H18.213V3.5a1.5,1.5,0,0,0-1.5-1.5H12.079a1.5,1.5,0,0,0-1.346,1.5v.748H4.748a.748.748,0,1,0,0,1.5H23.995a.748.748,0,1,0,0-1.5Z" fill="#e5604e"/>
  </g>
</svg>
